<?xml version="1.0" encoding="UTF-8"?>
<!DOCTYPE svg PUBLIC "-//W3C//DTD SVG 1.1//EN" "http://www.w3.org/Graphics/SVG/1.1/DTD/svg11.dtd">
<svg xmlns="http://www.w3.org/2000/svg" version="1.1" width="128px" height="128px" style="shape-rendering:geometricPrecision; text-rendering:geometricPrecision; image-rendering:optimizeQuality; fill-rule:evenodd; clip-rule:evenodd" xmlns:xlink="http://www.w3.org/1999/xlink">
<g><path style="opacity:1" fill="#3295c7" d="M 40.5,15.5 C 41.3414,17.3792 41.6747,19.3792 41.5,21.5C 41.5,21.8333 41.5,22.1667 41.5,22.5C 40.1667,23.1667 39.1667,24.1667 38.5,25.5C 38.1667,25.5 37.8333,25.5 37.5,25.5C 36.8333,23.1667 36.1667,20.8333 35.5,18.5C 36.9649,17.2632 38.6316,16.2632 40.5,15.5 Z"/></g>
<g><path style="opacity:1" fill="#3296c1" d="M 40.5,15.5 C 42.1667,15.5 43.8333,15.5 45.5,15.5C 45.5,17.5 45.5,19.5 45.5,21.5C 44.1667,21.5 42.8333,21.5 41.5,21.5C 41.6747,19.3792 41.3414,17.3792 40.5,15.5 Z"/></g>
<g><path style="opacity:1" fill="#329cba" d="M 45.5,15.5 C 48.1667,15.5 50.8333,15.5 53.5,15.5C 53.5,17.5 53.5,19.5 53.5,21.5C 51.1667,21.5 48.8333,21.5 46.5,21.5C 46.1667,21.5 45.8333,21.5 45.5,21.5C 45.5,19.5 45.5,17.5 45.5,15.5 Z"/></g>
<g><path style="opacity:1" fill="#32a2b3" d="M 53.5,15.5 C 55.8333,15.5 58.1667,15.5 60.5,15.5C 60.5,17.5 60.5,19.5 60.5,21.5C 58.1667,21.5 55.8333,21.5 53.5,21.5C 53.5,19.5 53.5,17.5 53.5,15.5 Z"/></g>
<g><path style="opacity:1" fill="#32a8a9" d="M 60.5,15.5 C 63.1667,15.5 65.8333,15.5 68.5,15.5C 68.5,17.5 68.5,19.5 68.5,21.5C 65.8333,21.5 63.1667,21.5 60.5,21.5C 60.5,19.5 60.5,17.5 60.5,15.5 Z"/></g>
<g><path style="opacity:1" fill="#32afa1" d="M 68.5,15.5 C 71.1667,15.5 73.8333,15.5 76.5,15.5C 76.5,17.5 76.5,19.5 76.5,21.5C 73.8333,21.5 71.1667,21.5 68.5,21.5C 68.5,19.5 68.5,17.5 68.5,15.5 Z"/></g>
<g><path style="opacity:1" fill="#32b597" d="M 76.5,15.5 C 79.1667,15.5 81.8333,15.5 84.5,15.5C 84.5,17.5 84.5,19.5 84.5,21.5C 81.8333,21.5 79.1667,21.5 76.5,21.5C 76.5,19.5 76.5,17.5 76.5,15.5 Z"/></g>
<g><path style="opacity:1" fill="#32ba90" d="M 84.5,15.5 C 86.8333,15.5 89.1667,15.5 91.5,15.5C 91.5,17.5 91.5,19.5 91.5,21.5C 89.1667,21.5 86.8333,21.5 84.5,21.5C 84.5,19.5 84.5,17.5 84.5,15.5 Z"/></g>
<g><path style="opacity:1" fill="#32c087" d="M 91.5,15.5 C 94.1667,15.5 96.8333,15.5 99.5,15.5C 99.5,17.5 99.5,19.5 99.5,21.5C 96.8333,21.5 94.1667,21.5 91.5,21.5C 91.5,19.5 91.5,17.5 91.5,15.5 Z"/></g>
<g><path style="opacity:1" fill="#31c87d" d="M 99.5,15.5 C 103.614,15.3856 106.614,17.0522 108.5,20.5C 108.5,43.8333 108.5,67.1667 108.5,90.5C 106.614,93.9478 103.614,95.6144 99.5,95.5C 99.5,93.5 99.5,91.5 99.5,89.5C 102.112,88.7225 103.945,87.0559 105,84.5C 105.667,64.8333 105.667,45.1667 105,25.5C 103.549,23.5359 101.716,22.2026 99.5,21.5C 99.5,19.5 99.5,17.5 99.5,15.5 Z"/></g>
<g><path style="opacity:1" fill="#328fc7" d="M 35.5,18.5 C 36.1667,20.8333 36.8333,23.1667 37.5,25.5C 37.5,27.5 37.5,29.5 37.5,31.5C 36.5386,33.2646 36.2053,35.2646 36.5,37.5C 35.8333,37.5 35.1667,37.5 34.5,37.5C 34.8222,31.642 34.4889,25.9753 33.5,20.5C 33.8333,19.5 34.5,18.8333 35.5,18.5 Z"/></g>
<g><path style="opacity:1" fill="#328fce" d="M 33.5,20.5 C 34.4889,25.9753 34.8222,31.642 34.5,37.5C 32.8333,37.5 31.1667,37.5 29.5,37.5C 29.5,35.5 29.5,33.5 29.5,31.5C 31.0879,28.1132 32.4212,24.4465 33.5,20.5 Z"/></g>
<g><path style="opacity:1" fill="#328fcd" d="M 41.5,21.5 C 42.8333,21.5 44.1667,21.5 45.5,21.5C 45.8333,21.5 46.1667,21.5 46.5,21.5C 49.9795,24.5524 50.3128,27.8857 47.5,31.5C 47.1667,31.5 46.8333,31.5 46.5,31.5C 45.1667,31.5 43.8333,31.5 42.5,31.5C 42.1667,31.5 41.8333,31.5 41.5,31.5C 41.5,28.5 41.5,25.5 41.5,22.5C 41.5,22.1667 41.5,21.8333 41.5,21.5 Z"/></g>
<g><path style="opacity:1" fill="#32cd77" d="M 108.5,20.5 C 109.79,21.0577 110.623,22.0577 111,23.5C 111.667,44.8333 111.667,66.1667 111,87.5C 110.623,88.9423 109.79,89.9423 108.5,90.5C 108.5,67.1667 108.5,43.8333 108.5,20.5 Z"/></g>
<g><path style="opacity:1" fill="#3289d4" d="M 41.5,22.5 C 41.5,25.5 41.5,28.5 41.5,31.5C 40.8333,31.5 40.1667,31.5 39.5,31.5C 38.8505,29.5648 38.5172,27.5648 38.5,25.5C 39.1667,24.1667 40.1667,23.1667 41.5,22.5 Z"/></g>
<g><path style="opacity:1" fill="#3289d5" d="M 29.5,31.5 C 29.5,33.5 29.5,35.5 29.5,37.5C 26.5466,37.1496 24.2133,38.1496 22.5,40.5C 21.6314,38.283 21.298,35.9496 21.5,33.5C 23.78,31.7773 26.4467,31.1107 29.5,31.5 Z"/></g>
<g><path style="opacity:1" fill="#3296c8" d="M 37.5,31.5 C 38.1667,31.5 38.8333,31.5 39.5,31.5C 40.1667,31.5 40.8333,31.5 41.5,31.5C 41.8333,31.5 42.1667,31.5 42.5,31.5C 41.6586,33.3792 41.3253,35.3792 41.5,37.5C 39.8333,37.5 38.1667,37.5 36.5,37.5C 36.2053,35.2646 36.5386,33.2646 37.5,31.5 Z"/></g>
<g><path style="opacity:1" fill="#3296c1" d="M 42.5,31.5 C 43.8333,31.5 45.1667,31.5 46.5,31.5C 45.6586,33.3792 45.3253,35.3792 45.5,37.5C 44.1667,37.5 42.8333,37.5 41.5,37.5C 41.3253,35.3792 41.6586,33.3792 42.5,31.5 Z"/></g>
<g><path style="opacity:1" fill="#329cba" d="M 46.5,31.5 C 46.8333,31.5 47.1667,31.5 47.5,31.5C 49.5,31.5 51.5,31.5 53.5,31.5C 53.5,33.5 53.5,35.5 53.5,37.5C 50.8333,37.5 48.1667,37.5 45.5,37.5C 45.3253,35.3792 45.6586,33.3792 46.5,31.5 Z"/></g>
<g><path style="opacity:1" fill="#32a2b3" d="M 53.5,31.5 C 55.8333,31.5 58.1667,31.5 60.5,31.5C 60.5,33.5 60.5,35.5 60.5,37.5C 58.1667,37.5 55.8333,37.5 53.5,37.5C 53.5,35.5 53.5,33.5 53.5,31.5 Z"/></g>
<g><path style="opacity:1" fill="#32a8a9" d="M 60.5,31.5 C 63.1667,31.5 65.8333,31.5 68.5,31.5C 68.5,33.5 68.5,35.5 68.5,37.5C 65.8333,37.5 63.1667,37.5 60.5,37.5C 60.5,35.5 60.5,33.5 60.5,31.5 Z"/></g>
<g><path style="opacity:1" fill="#32afa1" d="M 68.5,31.5 C 71.1667,31.5 73.8333,31.5 76.5,31.5C 76.5,33.5 76.5,35.5 76.5,37.5C 73.8333,37.5 71.1667,37.5 68.5,37.5C 68.5,35.5 68.5,33.5 68.5,31.5 Z"/></g>
<g><path style="opacity:1" fill="#32b597" d="M 76.5,31.5 C 79.1667,31.5 81.8333,31.5 84.5,31.5C 84.5,33.5 84.5,35.5 84.5,37.5C 81.8333,37.5 79.1667,37.5 76.5,37.5C 76.5,35.5 76.5,33.5 76.5,31.5 Z"/></g>
<g><path style="opacity:1" fill="#31ba8f" d="M 84.5,31.5 C 88.2094,31.679 90.8761,33.3457 92.5,36.5C 91.1667,59.8333 91.1667,83.1667 92.5,106.5C 90.8761,109.654 88.2094,111.321 84.5,111.5C 84.5,109.5 84.5,107.5 84.5,105.5C 86.475,104.354 87.975,102.687 89,100.5C 89.4999,88.1712 89.6665,75.8378 89.5,63.5C 87.8333,63.5 86.1667,63.5 84.5,63.5C 84.5,61.5 84.5,59.5 84.5,57.5C 86.1667,57.5 87.8333,57.5 89.5,57.5C 89.666,52.1563 89.4994,46.8229 89,41.5C 87.6288,39.9586 86.1288,38.6253 84.5,37.5C 84.5,35.5 84.5,33.5 84.5,31.5 Z"/></g>
<g><path style="opacity:1" fill="#3282da" d="M 21.5,33.5 C 21.298,35.9496 21.6314,38.283 22.5,40.5C 21.5476,46.0748 21.2143,51.7414 21.5,57.5C 21.5,59.5 21.5,61.5 21.5,63.5C 21.1863,76.5794 21.5197,89.5794 22.5,102.5C 21.6314,104.717 21.298,107.05 21.5,109.5C 19.8102,109.144 18.8102,108.144 18.5,106.5C 18.5,82.8333 18.5,59.1667 18.5,35.5C 18.9731,34.0937 19.9731,33.427 21.5,33.5 Z"/></g>
<g><path style="opacity:1" fill="#3282e0" d="M 18.5,35.5 C 18.5,59.1667 18.5,82.8333 18.5,106.5C 17.2101,105.942 16.3768,104.942 16,103.5C 15.3333,82.1667 15.3333,60.8333 16,39.5C 16.6082,37.9336 17.4415,36.6002 18.5,35.5 Z"/></g>
<g><path style="opacity:1" fill="#32c088" d="M 92.5,36.5 C 93.7899,37.0577 94.6232,38.0577 95,39.5C 95.4999,56.1633 95.6666,72.83 95.5,89.5C 96.8333,89.5 98.1667,89.5 99.5,89.5C 99.5,91.5 99.5,93.5 99.5,95.5C 98.1667,95.5 96.8333,95.5 95.5,95.5C 95.6641,98.1873 95.4974,100.854 95,103.5C 94.6232,104.942 93.7899,105.942 92.5,106.5C 91.1667,83.1667 91.1667,59.8333 92.5,36.5 Z"/></g>
<g><path style="opacity:1" fill="#328fcc" d="M 29.5,52.5 C 29.5,49.1667 29.5,45.8333 29.5,42.5C 33.8514,41.0223 36.518,42.6889 37.5,47.5C 36.518,52.3111 33.8514,53.9777 29.5,52.5 Z"/></g>
<g><path style="opacity:1" fill="#3289d4" d="M 29.5,42.5 C 29.5,45.8333 29.5,49.1667 29.5,52.5C 25.4293,50.5647 24.5959,47.5647 27,43.5C 27.6708,42.7476 28.5041,42.4142 29.5,42.5 Z"/></g>
<g><path style="opacity:1" fill="#3289d5" d="M 21.5,57.5 C 24.1667,57.5 26.8333,57.5 29.5,57.5C 29.5,59.5 29.5,61.5 29.5,63.5C 26.8333,63.5 24.1667,63.5 21.5,63.5C 21.5,61.5 21.5,59.5 21.5,57.5 Z"/></g>
<g><path style="opacity:1" fill="#328fcc" d="M 29.5,57.5 C 31.8333,57.5 34.1667,57.5 36.5,57.5C 36.5,59.5 36.5,61.5 36.5,63.5C 34.1667,63.5 31.8333,63.5 29.5,63.5C 29.5,61.5 29.5,59.5 29.5,57.5 Z"/></g>
<g><path style="opacity:1" fill="#3296c8" d="M 36.5,57.5 C 38.1667,57.5 39.8333,57.5 41.5,57.5C 41.5,59.5 41.5,61.5 41.5,63.5C 39.8333,63.5 38.1667,63.5 36.5,63.5C 36.5,61.5 36.5,59.5 36.5,57.5 Z"/></g>
<g><path style="opacity:1" fill="#3296c1" d="M 41.5,57.5 C 42.8333,57.5 44.1667,57.5 45.5,57.5C 45.5,59.5 45.5,61.5 45.5,63.5C 44.1667,63.5 42.8333,63.5 41.5,63.5C 41.5,61.5 41.5,59.5 41.5,57.5 Z"/></g>
<g><path style="opacity:1" fill="#329cba" d="M 45.5,57.5 C 48.1667,57.5 50.8333,57.5 53.5,57.5C 53.5,59.5 53.5,61.5 53.5,63.5C 50.8333,63.5 48.1667,63.5 45.5,63.5C 45.5,61.5 45.5,59.5 45.5,57.5 Z"/></g>
<g><path style="opacity:1" fill="#32a2b3" d="M 53.5,57.5 C 55.8333,57.5 58.1667,57.5 60.5,57.5C 60.5,59.5 60.5,61.5 60.5,63.5C 58.1667,63.5 55.8333,63.5 53.5,63.5C 53.5,61.5 53.5,59.5 53.5,57.5 Z"/></g>
<g><path style="opacity:1" fill="#32a8a9" d="M 60.5,57.5 C 63.1667,57.5 65.8333,57.5 68.5,57.5C 68.5,59.5 68.5,61.5 68.5,63.5C 65.8333,63.5 63.1667,63.5 60.5,63.5C 60.5,61.5 60.5,59.5 60.5,57.5 Z"/></g>
<g><path style="opacity:1" fill="#32afa1" d="M 68.5,57.5 C 71.1667,57.5 73.8333,57.5 76.5,57.5C 76.5,59.5 76.5,61.5 76.5,63.5C 73.8333,63.5 71.1667,63.5 68.5,63.5C 68.5,61.5 68.5,59.5 68.5,57.5 Z"/></g>
<g><path style="opacity:1" fill="#32b597" d="M 76.5,57.5 C 79.1667,57.5 81.8333,57.5 84.5,57.5C 84.5,59.5 84.5,61.5 84.5,63.5C 81.8333,63.5 79.1667,63.5 76.5,63.5C 76.5,61.5 76.5,59.5 76.5,57.5 Z"/></g>
<g><path style="opacity:1" fill="#3288d5" d="M 22.5,102.5 C 24.4605,104.312 26.7939,105.312 29.5,105.5C 29.5,107.5 29.5,109.5 29.5,111.5C 26.4467,111.889 23.78,111.223 21.5,109.5C 21.298,107.05 21.6314,104.717 22.5,102.5 Z"/></g>
<g><path style="opacity:1" fill="#328fcc" d="M 29.5,105.5 C 31.8333,105.5 34.1667,105.5 36.5,105.5C 36.5,107.5 36.5,109.5 36.5,111.5C 34.1667,111.5 31.8333,111.5 29.5,111.5C 29.5,109.5 29.5,107.5 29.5,105.5 Z"/></g>
<g><path style="opacity:1" fill="#3296c8" d="M 36.5,105.5 C 38.1667,105.5 39.8333,105.5 41.5,105.5C 41.5,107.5 41.5,109.5 41.5,111.5C 39.8333,111.5 38.1667,111.5 36.5,111.5C 36.5,109.5 36.5,107.5 36.5,105.5 Z"/></g>
<g><path style="opacity:1" fill="#3296c1" d="M 41.5,105.5 C 42.8333,105.5 44.1667,105.5 45.5,105.5C 45.5,107.5 45.5,109.5 45.5,111.5C 44.1667,111.5 42.8333,111.5 41.5,111.5C 41.5,109.5 41.5,107.5 41.5,105.5 Z"/></g>
<g><path style="opacity:1" fill="#329cba" d="M 45.5,105.5 C 48.1667,105.5 50.8333,105.5 53.5,105.5C 53.5,107.5 53.5,109.5 53.5,111.5C 50.8333,111.5 48.1667,111.5 45.5,111.5C 45.5,109.5 45.5,107.5 45.5,105.5 Z"/></g>
<g><path style="opacity:1" fill="#32a2b3" d="M 53.5,105.5 C 55.8333,105.5 58.1667,105.5 60.5,105.5C 60.5,107.5 60.5,109.5 60.5,111.5C 58.1667,111.5 55.8333,111.5 53.5,111.5C 53.5,109.5 53.5,107.5 53.5,105.5 Z"/></g>
<g><path style="opacity:1" fill="#32a8a9" d="M 60.5,105.5 C 63.1667,105.5 65.8333,105.5 68.5,105.5C 68.5,107.5 68.5,109.5 68.5,111.5C 65.8333,111.5 63.1667,111.5 60.5,111.5C 60.5,109.5 60.5,107.5 60.5,105.5 Z"/></g>
<g><path style="opacity:1" fill="#32afa1" d="M 68.5,105.5 C 71.1667,105.5 73.8333,105.5 76.5,105.5C 76.5,107.5 76.5,109.5 76.5,111.5C 73.8333,111.5 71.1667,111.5 68.5,111.5C 68.5,109.5 68.5,107.5 68.5,105.5 Z"/></g>
<g><path style="opacity:1" fill="#32b597" d="M 76.5,105.5 C 79.1667,105.5 81.8333,105.5 84.5,105.5C 84.5,107.5 84.5,109.5 84.5,111.5C 81.8333,111.5 79.1667,111.5 76.5,111.5C 76.5,109.5 76.5,107.5 76.5,105.5 Z"/></g>
</svg>
